<svg width="11" height="11" viewBox="0 0 11 11" fill="none" xmlns="http://www.w3.org/2000/svg">
<g clip-path="url(#clip0_163_1551)">
<path d="M0.6875 -9.05889e-05C0.994727 -9.05889e-05 1.25469 0.201863 1.34277 0.479011H1.34492L1.34277 0.481159L1.34492 0.487605V0.479011C1.9293 0.24698 2.75215 -9.05889e-05 3.60938 -9.05889e-05C4.44297 -9.05889e-05 5.21211 0.195417 5.88027 0.365144C6.57422 0.541316 7.15215 0.687409 7.73438 0.687409C8.31016 0.687409 8.8709 0.541316 9.30273 0.38448C9.51543 0.307136 9.6873 0.229792 9.80547 0.173933C9.86348 0.146003 9.90859 0.12237 9.93867 0.107331C9.95371 0.0987375 9.9623 0.0944407 9.96875 0.0901438L9.97305 0.0879953C10.1857 -0.0323172 10.4479 -0.0323172 10.6584 0.0922922C10.8689 0.216902 11 0.442488 11 0.687409V6.87491C11 7.13487 10.8539 7.37335 10.6197 7.48936L10.3125 6.87491C10.6197 7.48936 10.6197 7.48936 10.6197 7.48936H10.6176L10.6133 7.49151L10.5982 7.5001C10.5854 7.50655 10.566 7.51514 10.5445 7.52589C10.4973 7.54737 10.4328 7.57745 10.3512 7.61182C10.1857 7.68272 9.95371 7.7751 9.67441 7.86749C9.12012 8.0544 8.35312 8.24991 7.5625 8.24991C6.76758 8.24991 6.16172 8.04796 5.65039 7.87823L5.62891 7.87178C5.11328 7.69991 4.69004 7.56241 4.125 7.56241C3.52559 7.56241 2.73496 7.7171 2.0582 7.88467C1.79824 7.94913 1.56406 8.01358 1.375 8.06944V10.3124C1.375 10.6927 1.06777 10.9999 0.6875 10.9999C0.307227 10.9999 0 10.6927 0 10.3124V7.56241V1.54678V0.687409C0 0.307136 0.307227 -9.05889e-05 0.6875 -9.05889e-05ZM1.375 3.40303C1.75098 3.29776 2.24297 3.17315 2.75 3.07647V1.47803C2.42773 1.54893 2.12051 1.65206 1.84766 1.75733C1.66504 1.83038 1.50391 1.90128 1.375 1.96358V3.40303V3.40303ZM1.375 5.12178V6.64288C1.48457 6.6128 1.60273 6.58272 1.72305 6.55264C2.03027 6.4753 2.38477 6.39581 2.75 6.32921V4.79307C3.22051 4.70284 3.70391 4.64053 4.125 4.64053C4.24531 4.64053 4.35918 4.64483 4.46875 4.65557V6.2003C5.10254 6.24757 5.60742 6.41514 6.04355 6.56124L6.06289 6.56768C6.10586 6.58272 6.14668 6.59561 6.1875 6.6085V5.12608V5.096C6.5957 5.22276 7.02754 5.32803 7.5625 5.32803C7.67637 5.32803 7.79238 5.32374 7.90625 5.31514V6.85987C8.37891 6.8169 8.84941 6.69659 9.23613 6.56768C9.38223 6.51827 9.51328 6.46885 9.625 6.42589V4.92413C9.17598 5.08526 8.55293 5.26358 7.90625 5.313V3.59425C8.55293 3.54483 9.17598 3.36651 9.625 3.20538V1.7294C9.16094 1.88624 8.56152 2.03663 7.90625 2.06026V3.59639C7.79238 3.60499 7.67637 3.60928 7.5625 3.60928C7.02754 3.60928 6.5957 3.50401 6.1875 3.37725V1.85831C5.9877 1.81319 5.79434 1.76378 5.60742 1.71436L5.54082 1.69718C5.16699 1.60264 4.81465 1.51456 4.46875 1.4544V2.93682C4.35918 2.92823 4.24531 2.92178 4.125 2.92178C3.70391 2.92178 3.22051 2.98624 2.75 3.07432V4.79307C2.24297 4.88975 1.75098 5.01436 1.375 5.11964V5.12178ZM4.46875 2.93682V4.65557C4.99297 4.70069 5.42051 4.84249 5.84805 4.98428C5.95977 5.02081 6.07363 5.05948 6.1875 5.096V3.37725C6.07363 3.34073 5.95977 3.30421 5.84805 3.26553C5.42051 3.12374 4.99297 2.98194 4.46875 2.93682Z" fill="white"/>
</g>
<defs>
<clipPath id="clip0_163_1551">
<rect width="11" height="11" fill="white"/>
</clipPath>
</defs>
</svg>
