<svg width="512" height="512" viewBox="0 0 512 512" fill="none" xmlns="http://www.w3.org/2000/svg">
<g clip-path="url(#clip0_194_1661)">
<path d="M193.938 168.938V206.25H318.312V168.938C318.312 134.579 290.484 106.75 256.125 106.75C221.766 106.75 193.938 134.579 193.938 168.938ZM144.188 206.25V168.938C144.188 107.139 194.326 57 256.125 57C317.924 57 368.062 107.139 368.062 168.938V206.25H380.5C407.94 206.25 430.25 228.56 430.25 256V405.25C430.25 432.69 407.94 455 380.5 455H131.75C104.31 455 82 432.69 82 405.25V256C82 228.56 104.31 206.25 131.75 206.25H144.188Z" fill="white"/>
</g>
<defs>
<clipPath id="clip0_194_1661">
<rect width="348.25" height="398" fill="white" transform="translate(82 57)"/>
</clipPath>
</defs>
</svg>
