<svg width="512" height="512" viewBox="0 0 512 512" fill="none" xmlns="http://www.w3.org/2000/svg">
<g clip-path="url(#clip0_190_1627)">
<path d="M360.625 99.125H320.22C313.468 69.3812 287.894 47 256.375 47C224.856 47 198.549 69.3812 192.522 99.125H152.125C123.334 99.125 100 122.467 100 151.25V411.875C100 440.658 123.334 464 152.125 464H360.625C389.416 464 412.75 440.658 412.75 411.875V151.25C412.75 122.467 389.375 99.125 360.625 99.125ZM256.375 86.0938C267.15 86.0938 275.922 94.8654 275.922 105.641C275.922 116.416 267.126 125.188 256.375 125.188C245.624 125.188 236.828 116.416 236.828 105.641C236.828 94.8654 245.624 86.0938 256.375 86.0938ZM373.656 411.875C373.656 419.058 367.81 424.906 360.625 424.906H152.125C144.94 424.906 139.094 419.058 139.094 411.875V151.25C139.094 144.067 144.94 138.219 152.125 138.219H166.997C165.914 142.372 165.156 146.689 165.156 151.25V164.281C165.156 171.448 170.988 177.312 178.188 177.312H334.562C341.759 177.312 347.594 171.478 347.594 164.281V151.25C347.594 146.722 346.835 142.405 345.75 138.219H360.625C367.81 138.219 373.656 144.067 373.656 151.25V411.875Z" fill="white"/>
<path d="M321.531 226.5H191.219C184.052 226.5 178.188 232.364 178.188 239.531C178.188 246.698 184.052 252.562 191.219 252.562H321.531C328.698 252.562 334.562 246.698 334.562 239.531C334.562 232.364 328.698 226.5 321.531 226.5Z" fill="white"/>
<path d="M321.531 289.032H191.219C184.052 289.032 178.188 294.896 178.188 302.063C178.188 309.231 184.052 315.095 191.219 315.095H321.531C328.698 315.095 334.562 309.231 334.562 302.063C334.562 294.896 328.698 289.032 321.531 289.032Z" fill="white"/>
<path d="M321.531 352.562H191.219C184.052 352.562 178.188 358.427 178.188 365.594C178.188 372.761 184.052 378.625 191.219 378.625H321.531C328.698 378.625 334.562 372.761 334.562 365.594C334.562 358.427 328.698 352.562 321.531 352.562Z" fill="white"/>
</g>
<defs>
<clipPath id="clip0_190_1627">
<rect width="312.75" height="417" fill="white" transform="translate(100 47)"/>
</clipPath>
</defs>
</svg>
