<svg width="512" height="512" viewBox="0 0 512 512" fill="none" xmlns="http://www.w3.org/2000/svg">
<g clip-path="url(#clip0_190_1626)">
<path d="M81 81C94.8281 81 106 92.1719 106 106V368.5C106 375.375 111.625 381 118.5 381H431C444.828 381 456 392.172 456 406C456 419.828 444.828 431 431 431H118.5C83.9687 431 56 403.031 56 368.5V106C56 92.1719 67.1719 81 81 81ZM181 231C194.828 231 206 242.172 206 256V306C206 319.828 194.828 331 181 331C167.172 331 156 319.828 156 306V256C156 242.172 167.172 231 181 231ZM281 181V306C281 319.828 269.828 331 256 331C242.172 331 231 319.828 231 306V181C231 167.172 242.172 156 256 156C269.828 156 281 167.172 281 181ZM331 206C344.828 206 356 217.172 356 231V306C356 319.828 344.828 331 331 331C317.172 331 306 319.828 306 306V231C306 217.172 317.172 206 331 206ZM431 131V306C431 319.828 419.828 331 406 331C392.172 331 381 319.828 381 306V131C381 117.172 392.172 106 406 106C419.828 106 431 117.172 431 131Z" fill="white"/>
</g>
<defs>
<clipPath id="clip0_190_1626">
<rect width="512" height="512" fill="white"/>
</clipPath>
</defs>
</svg>
