<svg width="512" height="512" viewBox="0 0 512 512" fill="none" xmlns="http://www.w3.org/2000/svg">
<g clip-path="url(#clip0_190_1628)">
<path d="M256.25 256C310.932 256 355.25 211.682 355.25 157C355.25 102.318 310.932 58 256.25 58C201.568 58 157.25 102.318 157.25 157C157.25 211.682 201.568 256 256.25 256ZM220.904 293.125C144.72 293.125 83 354.845 83 431.029C83 443.713 93.2867 454 105.971 454H406.529C419.213 454 429.5 443.713 429.5 431.029C429.5 354.845 367.78 293.125 291.596 293.125H220.904Z" fill="white"/>
</g>
<defs>
<clipPath id="clip0_190_1628">
<rect width="346.5" height="396" fill="white" transform="translate(83 58)"/>
</clipPath>
</defs>
</svg>
