<svg width="512" height="512" viewBox="0 0 512 512" fill="none" xmlns="http://www.w3.org/2000/svg">
<path d="M165.5 119.5C90.1406 119.5 29 180.641 29 256C29 331.359 90.1406 392.5 165.5 392.5H347.5C422.859 392.5 484 331.359 484 256C484 180.641 422.859 119.5 347.5 119.5H165.5ZM381.625 250.312C365.913 250.312 353.188 237.587 353.188 221.875C353.188 206.163 365.913 193.437 381.625 193.437C397.337 193.437 410.062 206.163 410.062 221.875C410.062 237.587 397.337 250.312 381.625 250.312ZM364.562 290.125C364.562 305.837 351.837 318.562 336.125 318.562C320.413 318.562 307.688 305.837 307.688 290.125C307.688 274.413 320.413 261.687 336.125 261.687C351.837 261.687 364.562 274.413 364.562 290.125ZM148.438 216.187C148.438 206.732 156.045 199.125 165.5 199.125C174.955 199.125 182.562 206.732 182.562 216.187V238.937H205.312C214.768 238.937 222.375 246.544 222.375 256C222.375 265.455 214.768 273.062 205.312 273.062H182.562V295.812C182.562 305.268 174.955 312.875 165.5 312.875C156.045 312.875 148.438 305.268 148.438 295.812V273.062H125.688C116.232 273.062 108.625 265.455 108.625 256C108.625 246.544 116.232 238.937 125.688 238.937H148.438V216.187Z" fill="white"/>
</svg>
